<?xml version="1.0" encoding="utf-8"?>
<!-- Generator: Adobe Illustrator 15.0.0, SVG Export Plug-In . SVG Version: 6.00 Build 0)  -->
<!DOCTYPE svg PUBLIC "-//W3C//DTD SVG 1.1//EN" "http://www.w3.org/Graphics/SVG/1.1/DTD/svg11.dtd">
<svg version="1.1" id="Layer_1" xmlns="http://www.w3.org/2000/svg" xmlns:xlink="http://www.w3.org/1999/xlink" x="0px" y="0px"
	 width="32.573px" height="32.049px" viewBox="0 14.951 32.573 32.049" enable-background="new 0 14.951 32.573 32.049"
	 xml:space="preserve">
<g>
	<g>
		<path fill="#4EF579" d="M26.723,14.951H6.288c-3.231,0-5.85,2.62-5.85,5.851v20.346c0,3.232,2.619,5.852,5.85,5.852h20.435
			c3.23,0,5.851-2.619,5.851-5.852V20.802C32.573,17.571,29.954,14.951,26.723,14.951z M26.918,28.243L15.865,39.297
			c-0.469,0.47-1.105,0.732-1.769,0.732c-0.663,0-1.299-0.264-1.768-0.732L6.85,33.818c-0.976-0.978-0.976-2.56,0-3.537
			c0.469-0.469,1.104-0.732,1.768-0.732s1.299,0.264,1.768,0.732l3.265,3.265c0.118,0.118,0.28,0.186,0.447,0.186
			c0.167,0,0.328-0.067,0.447-0.186l8.838-8.839c0.469-0.469,1.105-0.732,1.768-0.732c0.663,0,1.3,0.264,1.768,0.732
			C27.896,25.685,27.896,27.267,26.918,28.243z"/>
	</g>
</g>
</svg>
