<?xml version="1.0" encoding="UTF-8" standalone="no"?>
<svg width="202px" height="195px" viewBox="0 0 202 195" version="1.1" xmlns="http://www.w3.org/2000/svg" xmlns:xlink="http://www.w3.org/1999/xlink" xmlns:sketch="http://www.bohemiancoding.com/sketch/ns">
    <!-- Generator: Sketch 3.0.1 (7597) - http://www.bohemiancoding.com/sketch -->
    <title>Quote</title>
    <description>Created with Sketch.</description>
    <defs>
        <path d="M143.023089,195 C156.575054,195 167.593873,181.636193 167.593873,165.198378 L167.593873,142.786199 L167.593873,37.7785251 L194.594411,37.7785251 C198.57507,37.7785251 201.843051,34.6232332 201.979678,30.6403236 C202.230777,23.0328925 200.148132,15.7321232 196.108391,10.0755049 C191.703079,3.91270984 185.25574,0.247546326 178.409597,0.0221683277 L177.545521,0 L41.7784584,0 C28.2191075,0 17.1929034,13.3711963 17.1929034,29.8016219 L17.1929034,136.760108 C7.24125558,140.569366 9.26905771e-07,151.878908 9.26905771e-07,165.190989 C-0.00369170678,181.636193 11.0262051,195 24.5781707,195 L143.023089,195 Z M167,9 C161.909227,13.0677732 158.485802,20.1141344 158.160466,28.3571174 L158.09392,165.379576 C158.09392,176.75304 153.207581,185.729772 142.736569,183 C132.472656,180.324219 131.342141,171.825558 131.36443,165.379576 C131.386719,158.933594 134.259341,148.759152 142.736569,148.759152 L142.736569,137.05444 L26,137.05444 L26,29.6241288 C26.003697,18.2543693 32.8986077,9 41.3758358,9 L167,9 Z M189.740027,13.8287081 C191.334224,16.0410259 192.379578,18.7526594 192.80043,21.6906963 C192.908767,22.4470131 193.682373,28.2312012 193,30 L169,30 C168.612549,28.7436523 169.094047,22.6750938 169.186146,22.0311338 C170.241522,14.6519 175.156789,10.0052808 180.97252,10 L181.525009,10.0114833 C184.6606,10.1177033 187.576353,10.8287081 189.740027,13.8287081 Z M133,145 C127.601134,149.272368 123.985855,156.855821 123.985855,165.5 C123.985855,174.144179 127.601134,181.727632 133,186 L24.3788123,186 C15.9012235,186 9,176.807043 9,165.5 C9,154.192957 15.9012235,145 24.3788123,145 L26.2290063,145 L133,145 Z" id="path-1"></path>
    </defs>
    <g id="Page-1" stroke="none" stroke-width="1" fill="none" fill-rule="evenodd" sketch:type="MSPage">
        <g id="Artboard-1" sketch:type="MSArtboardGroup" transform="translate(-464.000000, -2572.000000)">
            <g id="Homepage---Desktop" sketch:type="MSLayerGroup" transform="translate(0.000000, -1.000000)">
                <g id="Process" transform="translate(161.000000, 2260.000000)">
                    <g id="Quote" transform="translate(0.000000, 313.000000)">
                        <g transform="translate(303.000000, 0.000000)">
                            <g id="Shape">
                                <use fill="#17B8E2" fill-rule="evenodd" sketch:type="MSShapeGroup" xlink:href="#path-1"></use>
                                <use stroke="none" fill="none" xlink:href="#path-1"></use>
                            </g>
                            <path d="M75,53 L75,63 L148,63 L148,53 L75,53 Z M75,38 L75,48 L148,48 L148,38 L75,38 Z M75,98 L75,108 L148,108 L148,98 L75,98 Z M75,83 L75,93 L148,93 L148,83 L75,83 Z" id="Rectangle-8" fill="#D8D8D8" sketch:type="MSShapeGroup"></path>
                            <path d="M42.0028165,38 C39.792122,38 38,39.7979383 38,42.0028165 L38,58.9971835 C38,61.207878 39.7979383,63 42.0028165,63 L58.9971835,63 C61.207878,63 63,61.2020617 63,58.9971835 L63,42.0028165 C63,39.792122 61.2020617,38 58.9971835,38 L42.0028165,38 Z M42.0028165,83 C39.792122,83 38,84.7979383 38,87.0028165 L38,103.997184 C38,106.207878 39.7979383,108 42.0028165,108 L58.9971835,108 C61.207878,108 63,106.202062 63,103.997184 L63,87.0028165 C63,84.792122 61.2020617,83 58.9971835,83 L42.0028165,83 Z" id="Rectangle-5" stroke="#F86F07" stroke-width="8" fill-opacity="0" fill="#D8D8D8" sketch:type="MSShapeGroup"></path>
                        </g>
                    </g>
                </g>
            </g>
        </g>
    </g>
</svg>