<?xml version="1.0" encoding="utf-8"?>
<!-- Generator: Adobe Illustrator 17.1.0, SVG Export Plug-In . SVG Version: 6.00 Build 0)  -->
<!DOCTYPE svg PUBLIC "-//W3C//DTD SVG 1.1//EN" "http://www.w3.org/Graphics/SVG/1.1/DTD/svg11.dtd">
<svg version="1.1" id="Layer_1" xmlns:sketch="http://www.bohemiancoding.com/sketch/ns"
	 xmlns="http://www.w3.org/2000/svg" xmlns:xlink="http://www.w3.org/1999/xlink" x="0px" y="0px" viewBox="155.6 62.2 248.8 105.5"
	 enable-background="new 155.6 62.2 248.8 105.5" xml:space="preserve">
<title>Selection</title>
<description>Created with Sketch.</description>
<g id="Page-1" sketch:type="MSPage">
	<g id="Artboard-1" transform="translate(-1161.000000, -2570.000000)" sketch:type="MSArtboardGroup">
		<g id="Homepage---Desktop" transform="translate(-4.000000, -1.000000)" sketch:type="MSLayerGroup">
			<g id="Process" transform="translate(165.000000, 2260.000000)">
				<g id="Reach-Out" transform="translate(874.000000, 277.000000)">
					<g id="Selection" transform="translate(126.000000, 34.000000)">
						<g id="Select" transform="translate(0.000000, 66.000000)">
							<path id="Rectangle-170" sketch:type="MSShapeGroup" fill="#FFFFFF" stroke="#D8D8D8" stroke-width="0.4435" d="M159.4,27.3
								h37.3c2,0,3.5,1.6,3.5,3.5v37.7c0,2-1.6,3.5-3.5,3.5h-37.3c-2,0-3.5-1.6-3.5-3.5V30.8C155.8,28.9,157.4,27.3,159.4,27.3z"/>
							<g id="Rectangle-9">
								<g sketch:type="MSShapeGroup">
									<path id="path-1" fill="#D8D8D8" fill-opacity="0.25" d="M162,62.7v4.4h32.4v-4.4H162z M162,56.1v4.4h32.4v-4.4H162z"/>
								</g>
								<g>
									<path id="path-1_1_" fill="none" d="M162,62.7v4.4h32.4v-4.4H162z M162,56.1v4.4h32.4v-4.4H162z"/>
								</g>
							</g>
							<g id="icon_605" transform="translate(14.000000, 8.000000)" sketch:type="MSShapeGroup">
								<path id="Shape" fill="#D8D8D8" d="M163.1,27.7c-3.9,0-6.2-3.1-6.2-3.1l1.4-0.9c0.1,0.2,3.3,4.4,8.7,1.2l0.9,1.3
									C166.2,27.3,164.5,27.7,163.1,27.7L163.1,27.7L163.1,27.7z"/>
								<path id="Shape_1_" fill="#D8D8D8" d="M177.8,27.7h1.7c-0.1-1.7-1-3.1-2.5-3.9c-2.2-1.3-5.5-1.2-8.1,0.1l0.8,1.5
									c2.1-1.1,4.7-1.1,6.5-0.1C176.9,25.6,177.7,26.4,177.8,27.7L177.8,27.7z"/>
								<path id="Shape_2_" fill="#D8D8D8" fill-opacity="0.5" d="M177.9,29.5l-0.6,7.5l-9.7-6.6V37l-9.7-6.6V37l-9.7-6.6v13.7h32.4
									l-0.8-14.6H177.9z M156.5,42.3h-6.7v-3.1h6.7V42.3L156.5,42.3z M165.8,42.3h-6.7v-3.1h6.7L165.8,42.3L165.8,42.3z M176,42.3
									h-6.7v-3.1h6.7V42.3L176,42.3z"/>
							</g>
						</g>
						<g id="Select-2" transform="translate(120.000000, 66.000000)">
							<path id="Rectangle-170_1_" sketch:type="MSShapeGroup" fill="#FFFFFF" stroke="#D8D8D8" stroke-width="0.4435" d="
								M92.6,27.3h37.3c2,0,3.5,1.6,3.5,3.5v37.7c0,2-1.6,3.5-3.5,3.5H92.6c-2,0-3.5-1.6-3.5-3.5V30.8C89,28.9,90.6,27.3,92.6,27.3z
								"/>
							<g id="Rectangle-9_1_">
								<g sketch:type="MSShapeGroup">
									<path id="path-2" fill="#D8D8D8" fill-opacity="0.25" d="M95.3,62.7v4.4h32.4v-4.4H95.3z M95.3,56.1v4.4h32.4v-4.4H95.3z"
										/>
								</g>
								<g>
									<path id="path-2_1_" fill="none" d="M95.3,62.7v4.4h32.4v-4.4H95.3z M95.3,56.1v4.4h32.4v-4.4H95.3z"/>
								</g>
							</g>
							<g id="icon_605_1_" transform="translate(14.000000, 8.000000)" sketch:type="MSShapeGroup">
								<path id="Shape_3_" fill="#D8D8D8" d="M96.3,27.7c-3.9,0-6.2-3.1-6.2-3.1l1.4-0.9c0.1,0.2,3.3,4.4,8.7,1.2l0.9,1.3
									C99.4,27.3,97.8,27.7,96.3,27.7L96.3,27.7L96.3,27.7z"/>
								<path id="Shape_4_" fill="#D8D8D8" d="M111,27.7h1.7c-0.1-1.7-1-3.1-2.5-3.9c-2.2-1.3-5.5-1.2-8.1,0.1l0.8,1.5
									c2.1-1.1,4.7-1.1,6.5-0.1C110.1,25.6,110.9,26.4,111,27.7L111,27.7z"/>
								<path id="Shape_5_" fill="#D8D8D8" fill-opacity="0.5" d="M111.1,29.5l-0.6,7.5l-9.7-6.6V37L91,30.4V37l-9.7-6.6v13.7h32.4
									l-0.8-14.6H111.1z M89.7,42.3H83v-3.1h6.7V42.3L89.7,42.3z M99,42.3h-6.7v-3.1H99L99,42.3L99,42.3z M109.2,42.3h-6.7v-3.1
									h6.7V42.3L109.2,42.3z"/>
							</g>
						</g>
						<g id="Select-4" transform="translate(340.000000, 66.000000)">
							<path id="Rectangle-170_2_" sketch:type="MSShapeGroup" fill="#FFFFFF" stroke="#D8D8D8" stroke-width="0.4435" d="
								M-29.8,27.3H7.4c2,0,3.5,1.6,3.5,3.5v37.7c0,2-1.6,3.5-3.5,3.5h-37.3c-2,0-3.5-1.6-3.5-3.5V30.8
								C-33.4,28.9-31.8,27.3-29.8,27.3z"/>
							<g id="Rectangle-9_2_">
								<g sketch:type="MSShapeGroup">
									<path id="path-3" fill="#D8D8D8" fill-opacity="0.25" d="M-27.2,62.7v4.4H5.2v-4.4H-27.2z M-27.2,56.1v4.4H5.2v-4.4H-27.2z
										"/>
								</g>
								<g>
									<path id="path-3_1_" fill="none" d="M-27.2,62.7v4.4H5.2v-4.4H-27.2z M-27.2,56.1v4.4H5.2v-4.4H-27.2z"/>
								</g>
							</g>
							<g id="icon_605_2_" transform="translate(14.000000, 8.000000)" sketch:type="MSShapeGroup">
								<path id="Shape_6_" fill="#D8D8D8" d="M-26.1,27.7c-3.9,0-6.2-3.1-6.2-3.1l1.4-0.9c0.1,0.2,3.3,4.4,8.7,1.2l0.9,1.3
									C-23,27.3-24.7,27.7-26.1,27.7L-26.1,27.7L-26.1,27.7z"/>
								<path id="Shape_7_" fill="#D8D8D8" d="M-11.4,27.7h1.7c-0.1-1.7-1-3.1-2.5-3.9c-2.2-1.3-5.5-1.2-8.1,0.1l0.8,1.5
									c2.1-1.1,4.7-1.1,6.5-0.1C-12.4,25.6-11.5,26.4-11.4,27.7L-11.4,27.7z"/>
								<path id="Shape_8_" fill="#D8D8D8" fill-opacity="0.5" d="M-11.4,29.5L-12,37l-9.7-6.6V37l-9.7-6.6V37l-9.7-6.6v13.7h32.4
									l-0.8-14.6H-11.4z M-32.8,42.3h-6.7v-3.1h6.7V42.3L-32.8,42.3z M-23.4,42.3h-6.7v-3.1h6.7L-23.4,42.3L-23.4,42.3z
									 M-13.2,42.3h-6.7v-3.1h6.7V42.3L-13.2,42.3z"/>
							</g>
						</g>
						<g id="Select-3" transform="translate(460.000000, 66.000000)">
							<path id="Rectangle-170_3_" sketch:type="MSShapeGroup" fill="#FFFFFF" stroke="#D8D8D8" stroke-width="0.4435" d="
								M-96.6,27.3h37.3c2,0,3.5,1.6,3.5,3.5v37.7c0,2-1.6,3.5-3.5,3.5h-37.3c-2,0-3.5-1.6-3.5-3.5V30.8
								C-100.2,28.9-98.6,27.3-96.6,27.3z"/>
							<g id="Rectangle-9_3_">
								<g sketch:type="MSShapeGroup">
									<path id="path-4" fill="#D8D8D8" fill-opacity="0.25" d="M-94,62.7v4.4h32.4v-4.4H-94z M-94,56.1v4.4h32.4v-4.4H-94z"/>
								</g>
								<g>
									<path id="path-4_1_" fill="none" d="M-94,62.7v4.4h32.4v-4.4H-94z M-94,56.1v4.4h32.4v-4.4H-94z"/>
								</g>
							</g>
							<g id="icon_605_3_" transform="translate(14.000000, 8.000000)" sketch:type="MSShapeGroup">
								<path id="Shape_9_" fill="#D8D8D8" d="M-92.9,27.7c-3.9,0-6.2-3.1-6.2-3.1l1.4-0.9c0.1,0.2,3.3,4.4,8.7,1.2l0.9,1.3
									C-89.8,27.3-91.5,27.7-92.9,27.7L-92.9,27.7L-92.9,27.7z"/>
								<path id="Shape_10_" fill="#D8D8D8" d="M-78.2,27.7h1.7c-0.1-1.7-1-3.1-2.5-3.9c-2.2-1.3-5.5-1.2-8.1,0.1l0.8,1.5
									c2.1-1.1,4.7-1.1,6.5-0.1C-79.1,25.6-78.3,26.4-78.2,27.7L-78.2,27.7z"/>
								<path id="Shape_11_" fill="#D8D8D8" fill-opacity="0.5" d="M-78.1,29.5l-0.6,7.5l-9.7-6.6V37l-9.7-6.6V37l-9.7-6.6v13.7
									h32.4l-0.8-14.6H-78.1z M-99.5,42.3h-6.7v-3.1h6.7V42.3L-99.5,42.3z M-90.2,42.3h-6.7v-3.1h6.7L-90.2,42.3L-90.2,42.3z
									 M-80,42.3h-6.7v-3.1h6.7V42.3L-80,42.3z"/>
							</g>
						</g>
						<g id="Select-5" transform="translate(180.000000, 0.000000)">
							<path id="Rectangle-170_4_" sketch:type="MSShapeGroup" fill="#FFFFFF" stroke="#D8D8D8" stroke-width="3.5478" d="M59.2,64
								h81.6c2,0,3.5,1.6,3.5,3.5v94.9c0,2-1.6,3.5-3.5,3.5H59.2c-2,0-3.5-1.6-3.5-3.5V67.5C55.7,65.6,57.2,64,59.2,64z"/>
							<g id="Rectangle-9_4_">
								<g sketch:type="MSShapeGroup">
									<path id="path-5" fill="#D8D8D8" d="M73.4,146.2v3.6h53v-3.6H73.4z M73.4,139.6v3.6h53v-3.6H73.4z M73.4,126.7v3.6h53v-3.6
										H73.4z M73.4,133.2v3.6h53v-3.6H73.4z"/>
								</g>
								<g>
									<path id="path-5_1_" fill="none" d="M73.4,146.2v3.6h53v-3.6H73.4z M73.4,139.6v3.6h53v-3.6H73.4z M73.4,126.7v3.6h53v-3.6
										H73.4z M73.4,133.2v3.6h53v-3.6H73.4z"/>
								</g>
							</g>
							<g id="icon_605_4_" transform="translate(40.000000, 45.841584)" sketch:type="MSShapeGroup">
								<path id="Shape_12_" fill="#F76F07" d="M58.1,46.2c-6.5,0-10.1-5-10.2-5l2.3-1.4c0.2,0.3,5.3,7.1,14.3,1.9l1.5,2.2
									C63.1,45.6,60.4,46.2,58.1,46.2L58.1,46.2L58.1,46.2z"/>
								<path id="Shape_13_" fill="#F76F07" d="M82.2,46.2h2.8c-0.2-2.7-1.6-5-4.2-6.4c-3.7-2.1-9-2-13.3,0.2l1.3,2.4
									c3.4-1.8,7.7-1.8,10.6-0.2C80.6,42.9,82,44.1,82.2,46.2L82.2,46.2z"/>
								<path id="Shape_14_" fill="#17B8E2" d="M82.2,49.1l-1,12.2L65.3,50.6v10.8L49.3,50.6v10.8L33.4,50.6v22.2h53L85,49.1H82.2z
									 M47.2,70H36.3v-5h10.9V70L47.2,70z M62.4,70H51.5v-5h10.9L62.4,70L62.4,70z M79.1,70H68.2v-5h10.9V70L79.1,70z"/>
							</g>
						</g>
					</g>
				</g>
			</g>
		</g>
	</g>
</g>
</svg>
