<?xml version="1.0" encoding="utf-8"?>
<!-- Generator: Adobe Illustrator 17.1.0, SVG Export Plug-In . SVG Version: 6.00 Build 0)  -->
<!DOCTYPE svg PUBLIC "-//W3C//DTD SVG 1.1//EN" "http://www.w3.org/Graphics/SVG/1.1/DTD/svg11.dtd">
<svg version="1.1" id="Layer_1" xmlns="http://www.w3.org/2000/svg" xmlns:xlink="http://www.w3.org/1999/xlink" x="0px" y="0px"
	 viewBox="0 0 500 100" enable-background="new 0 0 500 100" xml:space="preserve">
<g>
	<g>
		
			<ellipse transform="matrix(1.944616e-03 -1 1 1.944616e-03 33.4583 133.59)" fill="#FFFFFF" cx="83.7" cy="50" rx="13.9" ry="13.2"/>
		<path fill="#FFFFFF" d="M121.2,21.1l-32.6-20c-2.6-1.6-6.9-1.6-9.5,0l-32.6,20c-2.6,1.6-5.7,5.1-5.7,8.3v40.7
			c0,3.2,3.1,6.7,5.7,8.3l32.6,20c2.6,1.6,6.9,1.6,9.5,0l32.6-20c2.6-1.6,5.4-5.1,5.4-8.3V31.3C126.6,28.1,123.8,22.7,121.2,21.1z
			 M108.4,59l-5.3,9.2c0,0-5.1-3.2-9.7,0c-4.6,3.2-5,8.7-5,8.7l-10.1,0c0,0,0.2-5.6-4-8.6c-4.2-3-10.7-0.4-10.7-0.4L59,58.9
			c0,0,4.2-3.4,4.6-9c0.4-5.6-4.6-9.2-4.6-9.2l4.7-9.1c0,0,5.8,2.8,10.4-0.2c4.5-3,3.3-8.6,3.3-8.6l11.8,0c0,0-0.3,5.7,3.8,8.5
			c4.1,2.8,10.1,0.6,10.1,0.6l5.1,9.2c0,0-5.1,3.4-5.1,7.7C103.2,53.1,108.4,59,108.4,59z"/>
	</g>
</g>
<text transform="matrix(0.9451 0 0 1 141.386 67.2699)" fill="#FFFFFF" font-family="'OpenSans-Bold'" font-size="51.4965" letter-spacing="-1.1">SupplyBetter</text>
</svg>
