<?xml version="1.0" encoding="utf-8"?>
<!-- Generator: Adobe Illustrator 18.0.0, SVG Export Plug-In . SVG Version: 6.00 Build 0)  -->
<!DOCTYPE svg PUBLIC "-//W3C//DTD SVG 1.1//EN" "http://www.w3.org/Graphics/SVG/1.1/DTD/svg11.dtd">
<svg version="1.1" id="Layer_1" xmlns="http://www.w3.org/2000/svg" xmlns:xlink="http://www.w3.org/1999/xlink" x="0px" y="0px"
	 viewBox="49.9 334.7 496.7 122" enable-background="new 49.9 334.7 496.7 122" xml:space="preserve">
<g>
	<g>
		
			<ellipse transform="matrix(-1.944704e-03 1 -1 -1.944704e-03 498.5449 294.3611)" fill="#FFFFFF" cx="102.4" cy="396" rx="17" ry="16.2"/>
		<path fill="#FFFFFF" d="M148.3,360.6l-39.9-24.5c-3.2-2-8.4-2-11.6,0l-39.9,24.5c-3.2,2-7,6.2-7,10.2v49.8c0,3.9,3.8,8.2,7,10.2
			l39.9,24.5c3.2,2,8.4,2,11.6,0l39.9-24.5c3.2-2,6.6-6.2,6.6-10.2v-47.5C155,369.2,151.5,362.6,148.3,360.6z M132.7,407l-6.5,11.3
			c0,0-6.2-3.9-11.9,0c-5.6,3.9-6.1,10.6-6.1,10.6H95.8c0,0,0.2-6.9-4.9-10.5c-5.1-3.7-13.1-0.5-13.1-0.5l-5.6-11
			c0,0,5.1-4.2,5.6-11c0.5-6.9-5.6-11.3-5.6-11.3l5.8-11.1c0,0,7.1,3.4,12.7-0.2c5.5-3.7,4-10.5,4-10.5h14.4c0,0-0.4,7,4.7,10.4
			c5,3.4,12.4,0.7,12.4,0.7l6.2,11.3c0,0-6.2,4.2-6.2,9.4C126.3,399.8,132.7,407,132.7,407z"/>
	</g>
</g>
<g enable-background="new    ">
	<path fill="#FFFFFF" d="M203.6,404.7c0,4-1.3,7.2-4.2,9.5c-2.8,2.3-6.6,3.5-11.5,3.5c-4.5,0-8.6-0.9-12-2.7v-8.8
		c2.8,1.3,5.3,2.3,7.3,2.8c2,0.6,3.8,0.9,5.5,0.9c2,0,3.5-0.4,4.5-1.2c1.1-0.9,1.6-2,1.6-3.5c0-0.9-0.2-1.7-0.7-2.3
		c-0.5-0.7-1.1-1.3-2.1-2s-2.7-1.6-5.5-3.1c-2.6-1.3-4.5-2.6-5.9-3.7c-1.3-1.2-2.3-2.6-3.1-4.2c-0.7-1.6-1.2-3.4-1.2-5.5
		c0-4,1.2-7.1,3.8-9.4c2.6-2.3,6.1-3.4,10.5-3.4c2.2,0,4.3,0.2,6.4,0.9s4.2,1.3,6.2,2.3l-2.9,7.5c-2.3-1-4.2-1.7-5.6-2.1
		c-1.5-0.4-2.9-0.6-4.4-0.6c-1.7,0-3.1,0.4-3.9,1.2s-1.3,2-1.3,3.3c0,0.9,0.2,1.6,0.6,2.2s1,1.2,1.7,1.8c0.9,0.6,2.7,1.6,5.8,3.2
		c3.9,2,6.7,4,8.2,6C202.8,399.2,203.6,401.8,203.6,404.7z"/>
	<path fill="#FFFFFF" d="M232.3,417.2l-1.2-4.4h-0.5c-1,1.6-2.3,2.8-4,3.7c-1.7,0.9-3.7,1.3-6,1.3c-3.8,0-6.7-1.1-8.7-3.3
		c-2-2.2-2.9-5.3-2.9-9.3v-22.4h8.8v20.1c0,2.4,0.4,4.3,1.2,5.6c0.9,1.2,2.2,1.8,4,1.8c2.4,0,4.3-0.9,5.4-2.6
		c1.1-1.7,1.7-4.7,1.7-8.7v-16.3h8.8v34.4H232.3z"/>
	<path fill="#FFFFFF" d="M265,417.8c-3.8,0-6.9-1.5-8.9-4.4h-0.5c0.4,2.8,0.5,4.5,0.5,5v14h-8.8v-49.6h7.2l1.2,4.4h0.4
		c2.1-3.4,5.1-5.1,9.2-5.1c3.8,0,6.9,1.6,9.1,4.7c2.2,3.2,3.3,7.5,3.3,13.1c0,3.7-0.5,6.9-1.5,9.5c-1,2.7-2.4,4.8-4.4,6.2
		C269.8,417.1,267.6,417.8,265,417.8z M262.4,389.6c-2.2,0-3.8,0.7-4.8,2.1c-1,1.3-1.6,3.8-1.6,7.1v1c0,3.7,0.5,6.4,1.6,8
		c1,1.6,2.7,2.4,4.9,2.4c3.9,0,6-3.4,6-10.4c0-3.4-0.5-5.9-1.5-7.6C266.1,390.5,264.5,389.6,262.4,389.6z"/>
	<path fill="#FFFFFF" d="M301.5,417.8c-3.8,0-6.9-1.5-8.9-4.4H292c0.4,2.8,0.5,4.5,0.5,5v14h-8.8v-49.6h7.2l1.2,4.4h0.4
		c2.1-3.4,5.1-5.1,9.2-5.1c3.8,0,6.9,1.6,9.1,4.7c2.2,3.2,3.3,7.5,3.3,13.1c0,3.7-0.5,6.9-1.5,9.5c-1,2.7-2.4,4.8-4.4,6.2
		C306.2,417.1,304,417.8,301.5,417.8z M298.9,389.6c-2.2,0-3.8,0.7-4.8,2.1s-1.6,3.8-1.6,7.1v1c0,3.7,0.5,6.4,1.6,8
		c1,1.6,2.7,2.4,4.9,2.4c3.9,0,6-3.4,6-10.4c0-3.4-0.5-5.9-1.5-7.6C302.5,390.5,301,389.6,298.9,389.6z"/>
	<path fill="#FFFFFF" d="M328.9,417.2h-8.8v-48h8.8V417.2z"/>
	<path fill="#FFFFFF" d="M332.3,382.8h9.7l6.1,19.3c0.5,1.7,0.9,3.7,1.1,6h0.1c0.2-2.1,0.6-4.2,1.2-6l6-19.3h9.5l-13.6,38.8
		c-1.2,3.5-3.1,6.2-5.4,8.1s-5,2.7-8.2,2.7c-1.6,0-3.1-0.1-4.5-0.5v-7.5c1.1,0.2,2.2,0.4,3.5,0.4c1.6,0,2.9-0.5,4.2-1.5
		c1.2-1,2.1-2.6,2.7-4.7l0.5-1.7L332.3,382.8z"/>
	<path fill="#FFFFFF" d="M370.4,372.1h13.2c6,0,10.4,0.9,13.1,2.7s4,4.7,4,8.7c0,2.7-0.6,4.9-1.8,6.6s-2.8,2.8-4.8,3.1v0.4
		c2.7,0.6,4.7,1.8,5.9,3.5c1.2,1.7,1.8,4,1.8,7c0,4.2-1.3,7.3-4.2,9.5c-2.8,2.3-6.6,3.4-11.4,3.4h-15.9V372.1z M379.3,390h5.3
		c2.4,0,4.2-0.4,5.3-1.2s1.6-2.1,1.6-3.9c0-1.7-0.6-2.9-1.8-3.7s-3.1-1.1-5.6-1.1h-4.8v9.9H379.3z M379.3,397.6v11.8h5.9
		c2.4,0,4.3-0.5,5.5-1.5c1.2-1,1.8-2.6,1.8-4.7c0-3.8-2.6-5.6-7.6-5.6C384.9,397.6,379.3,397.6,379.3,397.6z"/>
	<path fill="#FFFFFF" d="M423.1,417.8c-5.3,0-9.3-1.5-12.2-4.5s-4.4-7.3-4.4-13c0-5.8,1.3-10.3,4-13.3c2.7-3.2,6.5-4.8,11.3-4.8
		c4.7,0,8.2,1.3,10.8,4.2c2.6,2.8,3.8,6.6,3.8,11.5v4.5h-20.9c0.1,2.7,0.9,4.8,2.2,6.2c1.3,1.5,3.3,2.2,5.9,2.2c2,0,3.8-0.2,5.5-0.6
		c1.7-0.5,3.5-1.1,5.5-2.1v7.2c-1.6,0.9-3.2,1.5-5,1.8C427.7,417.5,425.7,417.8,423.1,417.8z M421.9,388.8c-1.8,0-3.3,0.6-4.4,1.8
		s-1.7,3.1-1.8,5.4h12.5c0-2.3-0.6-4.2-1.7-5.4C425.2,389.4,423.7,388.8,421.9,388.8z"/>
	<path fill="#FFFFFF" d="M456.1,410.3c1.6,0,3.4-0.4,5.6-1.1v7c-2.2,1.1-4.9,1.6-8.2,1.6c-3.5,0-6.1-1-7.7-2.8
		c-1.6-1.8-2.4-4.8-2.4-8.6v-16.6H439v-3.9l4.9-3.2l2.6-7.2h5.6v7.3h9.1v7.1h-9.1v16.6c0,1.3,0.4,2.3,1.1,2.9
		C454,410,454.8,410.3,456.1,410.3z"/>
	<path fill="#FFFFFF" d="M480.7,410.3c1.6,0,3.4-0.4,5.6-1.1v7c-2.2,1.1-4.9,1.6-8.2,1.6c-3.5,0-6.1-1-7.7-2.8s-2.4-4.8-2.4-8.6
		v-16.6h-4.3v-3.9l4.9-3.2l2.6-7.2h5.6v7.3h9.1v7.1h-9.1v16.6c0,1.3,0.4,2.3,1.1,2.9C478.6,410,479.4,410.3,480.7,410.3z"/>
	<path fill="#FFFFFF" d="M506.2,417.8c-5.3,0-9.3-1.5-12.2-4.5s-4.4-7.3-4.4-13c0-5.8,1.3-10.3,4-13.3c2.7-3.2,6.5-4.8,11.3-4.8
		c4.7,0,8.2,1.3,10.8,4.2c2.6,2.8,3.8,6.6,3.8,11.5v4.5h-20.9c0.1,2.7,0.9,4.8,2.2,6.2c1.3,1.5,3.3,2.2,5.9,2.2c2,0,3.8-0.2,5.5-0.6
		c1.7-0.5,3.5-1.1,5.5-2.1v7.2c-1.6,0.9-3.2,1.5-5,1.8C510.8,417.5,508.8,417.8,506.2,417.8z M505,388.8c-1.8,0-3.3,0.6-4.4,1.8
		s-1.7,3.1-1.8,5.4h12.5c0-2.3-0.6-4.2-1.7-5.4C508.4,389.4,506.9,388.8,505,388.8z"/>
	<path fill="#FFFFFF" d="M543.7,382c1.2,0,2.2,0.1,2.9,0.2l-0.6,8.8c-0.7-0.2-1.6-0.4-2.6-0.4c-2.8,0-5,0.7-6.6,2.3
		c-1.6,1.6-2.3,3.7-2.3,6.5v17.5h-8.8v-34.3h6.7l1.3,5.8h0.5c1-2,2.3-3.4,4-4.7C540,382.7,541.6,382,543.7,382z"/>
</g>
</svg>
