<?xml version="1.0" encoding="utf-8"?>
<!-- Generator: Adobe Illustrator 17.1.0, SVG Export Plug-In . SVG Version: 6.00 Build 0)  -->
<!DOCTYPE svg PUBLIC "-//W3C//DTD SVG 1.1//EN" "http://www.w3.org/Graphics/SVG/1.1/DTD/svg11.dtd">
<svg version="1.1" id="Layer_1" xmlns="http://www.w3.org/2000/svg" xmlns:xlink="http://www.w3.org/1999/xlink" x="0px" y="0px"
	 viewBox="0 0 500 100" enable-background="new 0 0 500 100" xml:space="preserve">
<g>
	<g>
		
			<ellipse transform="matrix(-1 -1.944692e-03 1.944692e-03 -1 167.1448 100.137)" fill="#FFFFFF" cx="83.6" cy="50" rx="13.2" ry="13.9"/>
		<path fill="#FFFFFF" d="M121.2,21.1l-32.6-20c-2.6-1.6-6.9-1.6-9.5,0l-32.6,20c-2.6,1.6-5.7,5.1-5.7,8.3v40.7
			c0,3.2,3.1,6.7,5.7,8.3l32.6,20c2.6,1.6,6.9,1.6,9.5,0l32.6-20c2.6-1.6,5.4-5.1,5.4-8.3V31.3C126.6,28.1,123.8,22.7,121.2,21.1z
			 M108.4,59l-5.3,9.2c0,0-5.1-3.2-9.7,0s-5,8.7-5,8.7H78.3c0,0,0.2-5.6-4-8.6s-10.7-0.4-10.7-0.4l-4.6-9c0,0,4.2-3.4,4.6-9
			c0.4-5.6-4.6-9.2-4.6-9.2l4.7-9.1c0,0,5.8,2.8,10.4-0.2c4.5-3,3.3-8.6,3.3-8.6h11.8c0,0-0.3,5.7,3.8,8.5
			c4.1,2.8,10.1,0.6,10.1,0.6l5.1,9.2c0,0-5.1,3.4-5.1,7.7C103.2,53.1,108.4,59,108.4,59z"/>
	</g>
</g>
<g enable-background="new    ">
	<path fill="#FFFFFF" d="M166.3,57.1c0,3.3-1.1,5.9-3.4,7.8c-2.3,1.9-5.4,2.9-9.4,2.9c-3.7,0-7-0.7-9.8-2.2v-7.2
		c2.3,1.1,4.3,1.9,6,2.3c1.6,0.5,3.1,0.7,4.5,0.7c1.6,0,2.9-0.3,3.7-1c0.9-0.7,1.3-1.6,1.3-2.9c0-0.7-0.2-1.4-0.6-1.9
		c-0.4-0.6-0.9-1.1-1.7-1.6s-2.2-1.3-4.5-2.5c-2.1-1.1-3.7-2.1-4.8-3c-1.1-1-1.9-2.1-2.5-3.4c-0.6-1.3-1-2.8-1-4.5
		c0-3.3,1-5.8,3.1-7.7c2.1-1.9,5-2.8,8.6-2.8c1.8,0,3.5,0.2,5.2,0.7s3.4,1.1,5.1,1.9l-2.4,6.1c-1.9-0.8-3.4-1.4-4.6-1.7
		c-1.2-0.3-2.4-0.5-3.6-0.5c-1.4,0-2.5,0.3-3.2,1c-0.7,0.7-1.1,1.6-1.1,2.7c0,0.7,0.2,1.3,0.5,1.8c0.3,0.5,0.8,1,1.4,1.5
		c0.7,0.5,2.2,1.3,4.7,2.6c3.2,1.6,5.5,3.3,6.7,4.9C165.7,52.6,166.3,54.7,166.3,57.1z"/>
	<path fill="#FFFFFF" d="M189.8,67.3l-1-3.6h-0.4c-0.8,1.3-1.9,2.3-3.3,3c-1.4,0.7-3,1.1-4.9,1.1c-3.1,0-5.5-0.9-7.1-2.7
		c-1.6-1.8-2.4-4.3-2.4-7.6V39.2h7.2v16.4c0,2,0.3,3.5,1,4.6c0.7,1,1.8,1.5,3.3,1.5c2,0,3.5-0.7,4.4-2.1c0.9-1.4,1.4-3.8,1.4-7.1
		V39.2h7.2v28.1H189.8z"/>
	<path fill="#FFFFFF" d="M216.5,67.8c-3.1,0-5.6-1.2-7.3-3.6h-0.4c0.3,2.3,0.4,3.7,0.4,4.1v11.4h-7.2V39.2h5.9l1,3.6h0.3
		c1.7-2.8,4.2-4.2,7.5-4.2c3.1,0,5.6,1.3,7.4,3.8c1.8,2.6,2.7,6.1,2.7,10.7c0,3-0.4,5.6-1.2,7.8c-0.8,2.2-2,3.9-3.6,5.1
		C220.4,67.2,218.6,67.8,216.5,67.8z M214.4,44.8c-1.8,0-3.1,0.6-3.9,1.7s-1.3,3.1-1.3,5.8v0.8c0,3,0.4,5.2,1.3,6.5
		c0.8,1.3,2.2,2,4,2c3.2,0,4.9-2.8,4.9-8.5c0-2.8-0.4-4.8-1.2-6.2C217.4,45.5,216.1,44.8,214.4,44.8z"/>
	<path fill="#FFFFFF" d="M246.3,67.8c-3.1,0-5.6-1.2-7.3-3.6h-0.4c0.3,2.3,0.4,3.7,0.4,4.1v11.4h-7.2V39.2h5.9l1,3.6h0.3
		c1.7-2.8,4.2-4.2,7.5-4.2c3.1,0,5.6,1.3,7.4,3.8c1.8,2.6,2.7,6.1,2.7,10.7c0,3-0.4,5.6-1.2,7.8c-0.8,2.2-2,3.9-3.6,5.1
		C250.2,67.2,248.4,67.8,246.3,67.8z M244.2,44.8c-1.8,0-3.1,0.6-3.9,1.7s-1.3,3.1-1.3,5.8v0.8c0,3,0.4,5.2,1.3,6.5
		c0.8,1.3,2.2,2,4,2c3.2,0,4.9-2.8,4.9-8.5c0-2.8-0.4-4.8-1.2-6.2C247.1,45.5,245.9,44.8,244.2,44.8z"/>
	<path fill="#FFFFFF" d="M268.7,67.3h-7.2V28.1h7.2V67.3z"/>
	<path fill="#FFFFFF" d="M271.5,39.2h7.9l5,15.8c0.4,1.4,0.7,3,0.9,4.9h0.1c0.2-1.7,0.5-3.4,1-4.9l4.9-15.8h7.8L288,70.9
		c-1,2.9-2.5,5.1-4.4,6.6c-1.9,1.5-4.1,2.2-6.7,2.2c-1.3,0-2.5-0.1-3.7-0.4v-6.1c0.9,0.2,1.8,0.3,2.9,0.3c1.3,0,2.4-0.4,3.4-1.2
		c1-0.8,1.7-2.1,2.2-3.8l0.4-1.4L271.5,39.2z"/>
	<path fill="#FFFFFF" d="M302.6,30.5h10.8c4.9,0,8.5,0.7,10.7,2.2c2.2,1.5,3.3,3.8,3.3,7.1c0,2.2-0.5,4-1.5,5.4
		c-1,1.4-2.3,2.3-3.9,2.5V48c2.2,0.5,3.8,1.5,4.8,2.9s1.5,3.3,1.5,5.7c0,3.4-1.1,6-3.4,7.8c-2.3,1.9-5.4,2.8-9.3,2.8h-13V30.5z
		 M309.9,45.1h4.3c2,0,3.4-0.3,4.3-1c0.9-0.7,1.3-1.7,1.3-3.2c0-1.4-0.5-2.4-1.5-3s-2.5-0.9-4.6-0.9h-3.9V45.1z M309.9,51.3v9.6h4.8
		c2,0,3.5-0.4,4.5-1.2s1.5-2.1,1.5-3.8c0-3.1-2.1-4.6-6.2-4.6H309.9z"/>
	<path fill="#FFFFFF" d="M345.7,67.8c-4.3,0-7.6-1.2-10-3.7c-2.4-2.5-3.6-6-3.6-10.6c0-4.7,1.1-8.4,3.3-10.9
		c2.2-2.6,5.3-3.9,9.2-3.9c3.8,0,6.7,1.1,8.8,3.4c2.1,2.3,3.1,5.4,3.1,9.4v3.7h-17.1c0.1,2.2,0.7,3.9,1.8,5.1
		c1.1,1.2,2.7,1.8,4.8,1.8c1.6,0,3.1-0.2,4.5-0.5c1.4-0.4,2.9-0.9,4.5-1.7v5.9c-1.3,0.7-2.6,1.2-4.1,1.5S347.8,67.8,345.7,67.8z
		 M344.7,44.1c-1.5,0-2.7,0.5-3.6,1.5c-0.9,1-1.4,2.5-1.5,4.4h10.2c0-1.9-0.5-3.4-1.4-4.4C347.4,44.6,346.2,44.1,344.7,44.1z"/>
	<path fill="#FFFFFF" d="M372.6,61.7c1.3,0,2.8-0.3,4.6-0.9v5.7c-1.8,0.9-4,1.3-6.7,1.3c-2.9,0-5-0.8-6.3-2.3c-1.3-1.5-2-3.9-2-7
		V44.9h-3.5v-3.2l4-2.6l2.1-5.9h4.6v6h7.4v5.8h-7.4v13.6c0,1.1,0.3,1.9,0.9,2.4C370.9,61.4,371.6,61.7,372.6,61.7z"/>
	<path fill="#FFFFFF" d="M392.7,61.7c1.3,0,2.8-0.3,4.6-0.9v5.7c-1.8,0.9-4,1.3-6.7,1.3c-2.9,0-5-0.8-6.3-2.3c-1.3-1.5-2-3.9-2-7
		V44.9h-3.5v-3.2l4-2.6l2.1-5.9h4.6v6h7.4v5.8h-7.4v13.6c0,1.1,0.3,1.9,0.9,2.4C391,61.4,391.7,61.7,392.7,61.7z"/>
	<path fill="#FFFFFF" d="M413.6,67.8c-4.3,0-7.6-1.2-10-3.7c-2.4-2.5-3.6-6-3.6-10.6c0-4.7,1.1-8.4,3.3-10.9
		c2.2-2.6,5.3-3.9,9.2-3.9c3.8,0,6.7,1.1,8.8,3.4c2.1,2.3,3.1,5.4,3.1,9.4v3.7h-17.1c0.1,2.2,0.7,3.9,1.8,5.1
		c1.1,1.2,2.7,1.8,4.8,1.8c1.6,0,3.1-0.2,4.5-0.5c1.4-0.4,2.9-0.9,4.5-1.7v5.9c-1.3,0.7-2.6,1.2-4.1,1.5S415.7,67.8,413.6,67.8z
		 M412.6,44.1c-1.5,0-2.7,0.5-3.6,1.5c-0.9,1-1.4,2.5-1.5,4.4h10.2c0-1.9-0.5-3.4-1.4-4.4C415.4,44.6,414.1,44.1,412.6,44.1z"/>
	<path fill="#FFFFFF" d="M444.2,38.6c1,0,1.8,0.1,2.4,0.2l-0.5,7.2c-0.6-0.2-1.3-0.3-2.1-0.3c-2.3,0-4.1,0.6-5.4,1.9
		c-1.3,1.3-1.9,3-1.9,5.3v14.3h-7.2V39.2h5.5l1.1,4.7h0.4c0.8-1.6,1.9-2.8,3.3-3.8S442.5,38.6,444.2,38.6z"/>
</g>
</svg>
